<svg width="300" height="620" viewBox="0 0 300 620" fill="none" xmlns="http://www.w3.org/2000/svg">
  <rect width="300" height="620" rx="28" fill="#0D1016"/>
  <rect x="18" y="18" width="264" height="584" rx="22" fill="url(#paint0_linear_1_1)"/>
  <rect x="38" y="44" width="224" height="70" rx="18" fill="white" fill-opacity="0.07" stroke="white" stroke-opacity="0.09"/>
  <rect x="54" y="62" width="92" height="12" rx="6" fill="white" fill-opacity="0.88"/>
  <rect x="54" y="83" width="142" height="6" rx="3" fill="white" fill-opacity="0.34"/>
  <rect x="38" y="138" width="224" height="170" rx="20" fill="white" fill-opacity="0.06" stroke="white" stroke-opacity="0.08"/>
  <rect x="54" y="160" width="88" height="10" rx="5" fill="white" fill-opacity="0.82"/>
  <rect x="54" y="184" width="192" height="10" rx="5" fill="white" fill-opacity="0.16"/>
  <rect x="54" y="208" width="192" height="10" rx="5" fill="white" fill-opacity="0.16"/>
  <rect x="54" y="232" width="192" height="10" rx="5" fill="white" fill-opacity="0.16"/>
  <rect x="54" y="266" width="74" height="24" rx="12" fill="#99B7FF"/>
  <rect x="38" y="334" width="106" height="106" rx="22" fill="white" fill-opacity="0.06" stroke="white" stroke-opacity="0.08"/>
  <rect x="156" y="334" width="106" height="106" rx="22" fill="white" fill-opacity="0.06" stroke="white" stroke-opacity="0.08"/>
  <rect x="38" y="452" width="224" height="118" rx="20" fill="white" fill-opacity="0.06" stroke="white" stroke-opacity="0.08"/>
  <rect x="54" y="474" width="78" height="10" rx="5" fill="white" fill-opacity="0.82"/>
  <rect x="54" y="499" width="192" height="10" rx="5" fill="white" fill-opacity="0.16"/>
  <rect x="54" y="522" width="146" height="26" rx="13" fill="#1AB0C8" fill-opacity="0.9"/>
  <defs>
    <linearGradient id="paint0_linear_1_1" x1="38" y1="18" x2="264" y2="602" gradientUnits="userSpaceOnUse">
      <stop stop-color="#111827"/>
      <stop offset="0.55" stop-color="#0C1320"/>
      <stop offset="1" stop-color="#101B27"/>
    </linearGradient>
  </defs>
</svg>
